<svg width="150" height="34" viewBox="0 0 150 34" fill="none" xmlns="http://www.w3.org/2000/svg">
<path d="M46.839 5.21024C46.2888 3.15954 44.668 1.54428 42.6097 0.996196C38.8789 0.000116637 23.9193 0.000115664 23.9193 0.000115664C23.9193 0.000115664 8.95979 0.000116637 5.22901 0.996196C3.17088 1.54428 1.54975 3.15954 0.999686 5.21024C0 8.92752 0 16.683 0 16.683C0 16.683 0 24.4389 0.999686 28.156C1.54975 30.2065 3.17088 31.8219 5.22901 32.3698C8.95979 33.3662 23.9193 33.3662 23.9193 33.3662C23.9193 33.3662 38.8789 33.3662 42.6097 32.3698C44.668 31.8219 46.2888 30.2065 46.839 28.156C47.8388 24.4389 47.8388 16.683 47.8388 16.683C47.8388 16.683 47.8388 8.92752 46.839 5.21024Z" fill="#ED1D24"/>
<path d="M19.1348 23.833L31.5632 16.6832L19.1348 9.53324V23.833Z" fill="white"/>
<path d="M74.7397 27.082C75.0016 26.4008 75.1331 25.2873 75.1331 23.7421V17.2311C75.1331 15.7314 75.0016 14.6352 74.7397 13.9419C74.4774 13.2489 74.0155 12.9021 73.3544 12.9021C72.7156 12.9021 72.2648 13.2489 72.0029 13.9419C71.7406 14.6352 71.6095 15.7314 71.6095 17.2311V23.7421C71.6095 25.2873 71.7347 26.4008 71.986 27.082C72.2364 27.7641 72.6924 28.1046 73.3544 28.1046C74.0155 28.1046 74.4774 27.7641 74.7397 27.082ZM69.4374 30.3545C68.4903 29.719 67.8174 28.7301 67.4189 27.3889C67.0196 26.0486 66.8203 24.2646 66.8203 22.0375V19.0037C66.8203 16.7541 67.0479 14.9473 67.5043 13.584C67.9603 12.2205 68.6727 11.2266 69.6426 10.6015C70.6117 9.97675 71.8832 9.66408 73.4571 9.66408C75.0079 9.66408 76.2506 9.98244 77.1859 10.6185C78.1207 11.2547 78.8051 12.2492 79.2387 13.601C79.6714 14.9533 79.8884 16.7541 79.8884 19.0037V22.0375C79.8884 24.2646 79.6773 26.0544 79.2556 27.4062C78.8335 28.7583 78.1491 29.747 77.2028 30.3716C76.2562 30.9964 74.9736 31.3091 73.3544 31.3091C71.689 31.3091 70.3833 30.9906 69.4374 30.3545Z" fill="#252323"/>
<path d="M142.698 13.2926C142.459 13.5881 142.298 14.071 142.219 14.7412C142.139 15.4117 142.1 16.4284 142.1 17.7919V19.2917H145.554V17.7919C145.554 16.4514 145.509 15.4345 145.418 14.7412C145.326 14.0482 145.161 13.5599 144.922 13.2756C144.682 12.9915 144.311 12.8494 143.81 12.8494C143.308 12.8494 142.937 12.9974 142.698 13.2926ZM142.1 22.087V23.1437C142.1 24.4848 142.139 25.4902 142.219 26.1603C142.298 26.8308 142.463 27.3194 142.715 27.6264C142.966 27.9328 143.353 28.0865 143.878 28.0865C144.585 28.0865 145.07 27.8137 145.332 27.2681C145.594 26.7228 145.737 25.8139 145.759 24.541L149.831 24.7798C149.854 24.9622 149.865 25.2121 149.865 25.5296C149.865 27.4615 149.335 28.9047 148.274 29.859C147.214 30.8131 145.714 31.2905 143.775 31.2905C141.449 31.2905 139.818 30.5636 138.884 29.1088C137.948 27.6551 137.48 25.4052 137.48 22.3598V18.7122C137.48 15.5763 137.965 13.2873 138.935 11.8437C139.904 10.4008 141.563 9.67926 143.913 9.67926C145.531 9.67926 146.775 9.97474 147.641 10.5654C148.508 11.1567 149.118 12.0771 149.472 13.3265C149.825 14.5765 150.002 16.3038 150.002 18.5078V22.087H142.1Z" fill="#252323"/>
<path d="M57.9415 21.6956L52.5703 2.36808H57.2571L59.1386 11.1285C59.6179 13.2879 59.9711 15.1285 60.1991 16.6505H60.3361C60.4956 15.5599 60.8492 13.7308 61.3966 11.1627L63.3466 2.36808H68.0334L62.5941 21.6956V30.9678H57.9415V21.6956Z" fill="#252323"/>
<path d="M95.1327 10.0728V30.968H91.4378L91.0271 28.4116H90.9247C89.921 30.343 88.4155 31.3086 86.4088 31.3086C85.0176 31.3086 83.9914 30.8546 83.3298 29.9453C82.6683 29.0369 82.3379 27.6161 82.3379 25.6845V10.0728H87.059V25.4117C87.059 26.344 87.1617 27.0084 87.3669 27.4059C87.5721 27.8039 87.9143 28.0024 88.3931 28.0024C88.8038 28.0024 89.1972 27.8778 89.5733 27.6272C89.9497 27.3773 90.2289 27.0598 90.4116 26.6733V10.0728H95.1327Z" fill="#252323"/>
<path d="M119.35 10.0728V30.968H115.655L115.244 28.4116H115.142C114.137 30.343 112.632 31.3086 110.626 31.3086C109.234 31.3086 108.208 30.8546 107.547 29.9453C106.885 29.0369 106.555 27.6161 106.555 25.6845V10.0728H111.276V25.4117C111.276 26.344 111.378 27.0084 111.583 27.4059C111.789 27.8039 112.131 28.0024 112.61 28.0024C113.021 28.0024 113.414 27.8778 113.79 27.6272C114.167 27.3773 114.446 27.0598 114.628 26.6733V10.0728H119.35Z" fill="#252323"/>
<path d="M107.961 6.15249H103.274V30.9678H98.6556V6.15249H93.9688V2.36871H107.961V6.15249Z" fill="#252323"/>
<path d="M130.646 21.936C130.646 23.4587 130.582 24.6518 130.457 25.515C130.332 26.3791 130.121 26.9925 129.824 27.3557C129.528 27.7194 129.128 27.9011 128.627 27.9011C128.239 27.9011 127.88 27.8106 127.549 27.6283C127.218 27.4466 126.951 27.1741 126.745 26.8101V14.948C126.905 14.3803 127.178 13.9142 127.566 13.5506C127.954 13.1875 128.375 13.0052 128.832 13.0052C129.311 13.0052 129.681 13.1928 129.944 13.5675C130.206 13.9424 130.388 14.5731 130.491 15.4596C130.594 16.3456 130.646 17.6069 130.646 19.243V21.936ZM134.973 13.4128C134.687 12.0951 134.225 11.1408 133.587 10.5495C132.948 9.95911 132.07 9.66347 130.953 9.66347C130.086 9.66347 129.277 9.90791 128.524 10.3962C127.772 10.885 127.19 11.527 126.779 12.3223H126.745L126.745 1.31205H122.195V30.9674H126.095L126.574 28.9908H126.677C127.041 29.695 127.589 30.2518 128.319 30.6609C129.048 31.0698 129.858 31.2744 130.748 31.2744C132.344 31.2744 133.519 30.5413 134.271 29.0758C135.024 27.6099 135.4 25.3208 135.4 22.2073V18.9009C135.4 16.5605 135.258 14.7312 134.973 13.4128Z" fill="#252323"/>
</svg>
